<svg xmlns="http://www.w3.org/2000/svg" xmlns:xlink="http://www.w3.org/1999/xlink" version="1.1" x="0px" y="0px" viewBox="0 0 90 90" style="enable-background:new 0 0 90 90;" xml:space="preserve"><style type="text/css">
	.st0{fill:none;stroke:#000000;stroke-width:3;stroke-linecap:round;stroke-linejoin:round;stroke-miterlimit:10;}
	.st1{fill:none;stroke:#000000;stroke-width:1.0867;stroke-linecap:round;stroke-linejoin:round;stroke-miterlimit:10;}
	.st2{fill:none;stroke:#000000;stroke-width:1.1198;stroke-linecap:round;stroke-linejoin:round;stroke-miterlimit:10;}
	.st3{fill:none;stroke:#000000;stroke-width:2;stroke-linecap:round;stroke-linejoin:round;stroke-miterlimit:10;}
	.st4{fill:none;stroke:#000000;stroke-linecap:round;stroke-linejoin:round;stroke-miterlimit:10;}
	.st5{fill:none;stroke:#000000;stroke-width:2.2639;stroke-linecap:round;stroke-linejoin:round;stroke-miterlimit:10;}
	.st6{fill:none;stroke:#000000;stroke-width:1.5133;stroke-linecap:round;stroke-linejoin:round;stroke-miterlimit:10;}
</style><path class="st0" d="M47,32.6c-2.3-3.5-5.4-6.3-8.9-8.6c-9.2-6.2-19.5-8.3-30.5-8.3c-0.9,0-1,0.5-1.1,1.2c-0.8,5-0.8,10-0.3,15  c1,8.8,4,16.8,9.9,23.6c7.4,8.6,22.5,8,29.5,0.5C45.6,56,56.6,46.1,47,32.6z"></path><path class="st0" d="M72.3,49c0,0-17.9,6.1-21.4,26l0,0c0-25.5-22-33-22-33"></path><path class="st0" d="M62.9,56.8c3.7,4,11.7,4.3,15.7-0.2c3.1-3.6,4.7-7.9,5.3-12.5c0.3-2.7,0.3-5.3-0.1-8c-0.1-0.4-0.1-0.6-0.6-0.6  c-5.8,0-11.3,1.1-16.2,4.4c-1.8,1.2-3.5,2.7-4.7,4.6C57,51.6,62.9,56.8,62.9,56.8z"></path></svg>